G04 (created by PCBNEW-RS274X (2011-07-19)-testing) date Thu 29 Dec 2011 06:25:09 PM PST*
G01*
G70*
G90*
%MOIN*%
G04 Gerber Fmt 3.4, Leading zero omitted, Abs format*
%FSLAX34Y34*%
G04 APERTURE LIST*
%ADD10C,0.006000*%
%ADD11C,0.153900*%
%ADD12R,0.120000X0.070000*%
%ADD13C,0.110000*%
%ADD14C,0.059000*%
%ADD15R,0.087000X0.130000*%
%ADD16R,0.122400X0.130000*%
%ADD17R,0.065000X0.045000*%
%ADD18R,0.080000X0.080000*%
%ADD19C,0.080000*%
%ADD20R,0.098700X0.059400*%
G04 APERTURE END LIST*
G54D10*
G54D11*
X40621Y-40788D03*
X40621Y-62066D03*
X55442Y-40788D03*
X55442Y-62066D03*
G54D12*
X46031Y-45427D03*
X46031Y-46427D03*
X46031Y-47427D03*
X46031Y-48427D03*
X46031Y-49427D03*
X46031Y-50427D03*
X46031Y-51427D03*
X46031Y-52427D03*
X46031Y-53427D03*
X46031Y-54427D03*
X46031Y-55427D03*
X46031Y-56427D03*
X46031Y-57427D03*
G54D13*
X48251Y-40127D03*
X48251Y-62727D03*
G54D14*
X52800Y-59240D03*
X52800Y-57272D03*
G54D15*
X51005Y-56681D03*
X51005Y-58453D03*
G54D16*
X54414Y-58453D03*
X54414Y-56681D03*
G54D17*
X46000Y-58500D03*
X46000Y-59100D03*
G54D18*
X55031Y-50927D03*
G54D19*
X55031Y-51927D03*
G54D20*
X48146Y-60700D03*
X49450Y-59700D03*
X48146Y-58700D03*
X49450Y-57700D03*
X48146Y-56700D03*
X49450Y-55700D03*
X48146Y-54700D03*
X49450Y-53700D03*
X48146Y-52700D03*
X49450Y-51700D03*
X48146Y-50700D03*
X49450Y-49700D03*
X48146Y-48700D03*
X49450Y-47700D03*
X48146Y-46700D03*
X49450Y-45700D03*
X48146Y-44700D03*
X49450Y-43700D03*
X48146Y-42700D03*
X49450Y-41700D03*
X43454Y-41700D03*
X42150Y-42700D03*
X43454Y-43700D03*
X42150Y-44700D03*
X43454Y-45700D03*
X42150Y-46700D03*
X43454Y-47700D03*
X42150Y-48700D03*
X43454Y-49700D03*
X42150Y-50700D03*
X43454Y-51700D03*
X42150Y-52700D03*
X43454Y-53700D03*
X42150Y-54700D03*
X43454Y-55700D03*
X42150Y-56700D03*
X43454Y-57700D03*
X42150Y-58700D03*
X43454Y-59700D03*
X42150Y-60700D03*
M02*
