G04 (created by PCBNEW-RS274X (2011-07-19)-testing) date Thu 29 Dec 2011 06:25:09 PM PST*
G01*
G70*
G90*
%MOIN*%
G04 Gerber Fmt 3.4, Leading zero omitted, Abs format*
%FSLAX34Y34*%
G04 APERTURE LIST*
%ADD10C,0.006000*%
%ADD11C,0.012000*%
%ADD12C,0.015000*%
%ADD13C,0.005000*%
%ADD14C,0.004500*%
G04 APERTURE END LIST*
G54D10*
G54D11*
X52096Y-49060D02*
X51296Y-49060D01*
X51296Y-48660D02*
X51296Y-48546D01*
X51334Y-48488D01*
X51410Y-48431D01*
X51562Y-48403D01*
X51829Y-48403D01*
X51982Y-48431D01*
X52058Y-48488D01*
X52096Y-48546D01*
X52096Y-48660D01*
X52058Y-48717D01*
X51982Y-48774D01*
X51829Y-48803D01*
X51562Y-48803D01*
X51410Y-48774D01*
X51334Y-48717D01*
X51296Y-48660D01*
X52096Y-47345D02*
X51715Y-47545D01*
X52096Y-47688D02*
X51296Y-47688D01*
X51296Y-47460D01*
X51334Y-47402D01*
X51372Y-47374D01*
X51448Y-47345D01*
X51562Y-47345D01*
X51639Y-47374D01*
X51677Y-47402D01*
X51715Y-47460D01*
X51715Y-47688D01*
X52096Y-47002D02*
X52058Y-47060D01*
X52020Y-47088D01*
X51943Y-47117D01*
X51715Y-47117D01*
X51639Y-47088D01*
X51601Y-47060D01*
X51562Y-47002D01*
X51562Y-46917D01*
X51601Y-46860D01*
X51639Y-46831D01*
X51715Y-46802D01*
X51943Y-46802D01*
X52020Y-46831D01*
X52058Y-46860D01*
X52096Y-46917D01*
X52096Y-47002D01*
X52096Y-46288D02*
X51296Y-46288D01*
X52058Y-46288D02*
X52096Y-46345D01*
X52096Y-46459D01*
X52058Y-46517D01*
X52020Y-46545D01*
X51943Y-46574D01*
X51715Y-46574D01*
X51639Y-46545D01*
X51601Y-46517D01*
X51562Y-46459D01*
X51562Y-46345D01*
X51601Y-46288D01*
X52058Y-45774D02*
X52096Y-45831D01*
X52096Y-45945D01*
X52058Y-46002D01*
X51982Y-46031D01*
X51677Y-46031D01*
X51601Y-46002D01*
X51562Y-45945D01*
X51562Y-45831D01*
X51601Y-45774D01*
X51677Y-45745D01*
X51753Y-45745D01*
X51829Y-46031D01*
X52096Y-45402D02*
X52058Y-45460D01*
X52020Y-45488D01*
X51943Y-45517D01*
X51715Y-45517D01*
X51639Y-45488D01*
X51601Y-45460D01*
X51562Y-45402D01*
X51562Y-45317D01*
X51601Y-45260D01*
X51639Y-45231D01*
X51715Y-45202D01*
X51943Y-45202D01*
X52020Y-45231D01*
X52058Y-45260D01*
X52096Y-45317D01*
X52096Y-45402D01*
X53260Y-52687D02*
X53298Y-52716D01*
X53336Y-52802D01*
X53336Y-52859D01*
X53298Y-52944D01*
X53222Y-53002D01*
X53145Y-53030D01*
X52993Y-53059D01*
X52879Y-53059D01*
X52726Y-53030D01*
X52650Y-53002D01*
X52574Y-52944D01*
X52536Y-52859D01*
X52536Y-52802D01*
X52574Y-52716D01*
X52612Y-52687D01*
X53336Y-52173D02*
X52917Y-52173D01*
X52841Y-52202D01*
X52802Y-52259D01*
X52802Y-52373D01*
X52841Y-52430D01*
X53298Y-52173D02*
X53336Y-52230D01*
X53336Y-52373D01*
X53298Y-52430D01*
X53222Y-52459D01*
X53145Y-52459D01*
X53069Y-52430D01*
X53031Y-52373D01*
X53031Y-52230D01*
X52993Y-52173D01*
X52802Y-51887D02*
X53602Y-51887D01*
X52841Y-51887D02*
X52802Y-51830D01*
X52802Y-51716D01*
X52841Y-51659D01*
X52879Y-51630D01*
X52955Y-51601D01*
X53183Y-51601D01*
X53260Y-51630D01*
X53298Y-51659D01*
X53336Y-51716D01*
X53336Y-51830D01*
X53298Y-51887D01*
X53336Y-51344D02*
X52802Y-51344D01*
X52536Y-51344D02*
X52574Y-51373D01*
X52612Y-51344D01*
X52574Y-51316D01*
X52536Y-51344D01*
X52612Y-51344D01*
X53336Y-50972D02*
X53298Y-51030D01*
X53222Y-51058D01*
X52536Y-51058D01*
X53336Y-50658D02*
X53298Y-50716D01*
X53222Y-50744D01*
X52536Y-50744D01*
X53336Y-50173D02*
X52917Y-50173D01*
X52841Y-50202D01*
X52802Y-50259D01*
X52802Y-50373D01*
X52841Y-50430D01*
X53298Y-50173D02*
X53336Y-50230D01*
X53336Y-50373D01*
X53298Y-50430D01*
X53222Y-50459D01*
X53145Y-50459D01*
X53069Y-50430D01*
X53031Y-50373D01*
X53031Y-50230D01*
X52993Y-50173D01*
X53336Y-49887D02*
X52802Y-49887D01*
X52955Y-49887D02*
X52879Y-49859D01*
X52841Y-49830D01*
X52802Y-49773D01*
X52802Y-49716D01*
X52802Y-49573D02*
X53336Y-49430D01*
X52802Y-49288D02*
X53336Y-49430D01*
X53526Y-49488D01*
X53564Y-49516D01*
X53602Y-49573D01*
X53298Y-48631D02*
X53336Y-48545D01*
X53336Y-48402D01*
X53298Y-48345D01*
X53260Y-48316D01*
X53183Y-48288D01*
X53107Y-48288D01*
X53031Y-48316D01*
X52993Y-48345D01*
X52955Y-48402D01*
X52917Y-48516D01*
X52879Y-48574D01*
X52841Y-48602D01*
X52764Y-48631D01*
X52688Y-48631D01*
X52612Y-48602D01*
X52574Y-48574D01*
X52536Y-48516D01*
X52536Y-48374D01*
X52574Y-48288D01*
X53298Y-47803D02*
X53336Y-47860D01*
X53336Y-47974D01*
X53298Y-48031D01*
X53222Y-48060D01*
X52917Y-48060D01*
X52841Y-48031D01*
X52802Y-47974D01*
X52802Y-47860D01*
X52841Y-47803D01*
X52917Y-47774D01*
X52993Y-47774D01*
X53069Y-48060D01*
X52802Y-47517D02*
X53336Y-47517D01*
X52879Y-47517D02*
X52841Y-47489D01*
X52802Y-47431D01*
X52802Y-47346D01*
X52841Y-47289D01*
X52917Y-47260D01*
X53336Y-47260D01*
X53298Y-47003D02*
X53336Y-46946D01*
X53336Y-46831D01*
X53298Y-46774D01*
X53222Y-46746D01*
X53183Y-46746D01*
X53107Y-46774D01*
X53069Y-46831D01*
X53069Y-46917D01*
X53031Y-46974D01*
X52955Y-47003D01*
X52917Y-47003D01*
X52841Y-46974D01*
X52802Y-46917D01*
X52802Y-46831D01*
X52841Y-46774D01*
X53336Y-46402D02*
X53298Y-46460D01*
X53260Y-46488D01*
X53183Y-46517D01*
X52955Y-46517D01*
X52879Y-46488D01*
X52841Y-46460D01*
X52802Y-46402D01*
X52802Y-46317D01*
X52841Y-46260D01*
X52879Y-46231D01*
X52955Y-46202D01*
X53183Y-46202D01*
X53260Y-46231D01*
X53298Y-46260D01*
X53336Y-46317D01*
X53336Y-46402D01*
X53336Y-45945D02*
X52802Y-45945D01*
X52955Y-45945D02*
X52879Y-45917D01*
X52841Y-45888D01*
X52802Y-45831D01*
X52802Y-45774D01*
X53336Y-45117D02*
X52536Y-45117D01*
X52536Y-44889D01*
X52574Y-44831D01*
X52612Y-44803D01*
X52688Y-44774D01*
X52802Y-44774D01*
X52879Y-44803D01*
X52917Y-44831D01*
X52955Y-44889D01*
X52955Y-45117D01*
X53260Y-44174D02*
X53298Y-44203D01*
X53336Y-44289D01*
X53336Y-44346D01*
X53298Y-44431D01*
X53222Y-44489D01*
X53145Y-44517D01*
X52993Y-44546D01*
X52879Y-44546D01*
X52726Y-44517D01*
X52650Y-44489D01*
X52574Y-44431D01*
X52536Y-44346D01*
X52536Y-44289D01*
X52574Y-44203D01*
X52612Y-44174D01*
X52917Y-43717D02*
X52955Y-43631D01*
X52993Y-43603D01*
X53069Y-43574D01*
X53183Y-43574D01*
X53260Y-43603D01*
X53298Y-43631D01*
X53336Y-43689D01*
X53336Y-43917D01*
X52536Y-43917D01*
X52536Y-43717D01*
X52574Y-43660D01*
X52612Y-43631D01*
X52688Y-43603D01*
X52764Y-43603D01*
X52841Y-43631D01*
X52879Y-43660D01*
X52917Y-43717D01*
X52917Y-43917D01*
X52802Y-42917D02*
X53336Y-42774D01*
X52802Y-42632D01*
X53336Y-42089D02*
X53336Y-42432D01*
X53336Y-42260D02*
X52536Y-42260D01*
X52650Y-42317D01*
X52726Y-42375D01*
X52764Y-42432D01*
X53260Y-41832D02*
X53298Y-41804D01*
X53336Y-41832D01*
X53298Y-41861D01*
X53260Y-41832D01*
X53336Y-41832D01*
X52536Y-41432D02*
X52536Y-41375D01*
X52574Y-41318D01*
X52612Y-41289D01*
X52688Y-41260D01*
X52841Y-41232D01*
X53031Y-41232D01*
X53183Y-41260D01*
X53260Y-41289D01*
X53298Y-41318D01*
X53336Y-41375D01*
X53336Y-41432D01*
X53298Y-41489D01*
X53260Y-41518D01*
X53183Y-41546D01*
X53031Y-41575D01*
X52841Y-41575D01*
X52688Y-41546D01*
X52612Y-41518D01*
X52574Y-41489D01*
X52536Y-41432D01*
G54D12*
X51225Y-56189D02*
X54375Y-56189D01*
X54375Y-56189D02*
X54375Y-59811D01*
X54375Y-59811D02*
X51225Y-59811D01*
X51225Y-59811D02*
X51225Y-56189D01*
G54D13*
X46250Y-58350D02*
X46250Y-59250D01*
X46250Y-59250D02*
X45750Y-59250D01*
X45750Y-59250D02*
X45750Y-58350D01*
X45750Y-58350D02*
X46250Y-58350D01*
G54D12*
X48300Y-41200D02*
X48800Y-41200D01*
X43300Y-41200D02*
X42800Y-41200D01*
X48250Y-61500D02*
X48800Y-61500D01*
X43300Y-61500D02*
X42800Y-61500D01*
X46400Y-61500D02*
X46397Y-61448D01*
X46390Y-61396D01*
X46379Y-61345D01*
X46363Y-61295D01*
X46343Y-61247D01*
X46319Y-61201D01*
X46291Y-61156D01*
X46259Y-61115D01*
X46224Y-61076D01*
X46185Y-61041D01*
X46144Y-61009D01*
X46100Y-60981D01*
X46053Y-60957D01*
X46005Y-60937D01*
X45955Y-60921D01*
X45904Y-60910D01*
X45852Y-60903D01*
X45800Y-60900D01*
X45800Y-60900D02*
X45748Y-60903D01*
X45696Y-60910D01*
X45645Y-60921D01*
X45595Y-60937D01*
X45547Y-60957D01*
X45501Y-60981D01*
X45456Y-61009D01*
X45415Y-61041D01*
X45376Y-61076D01*
X45341Y-61115D01*
X45309Y-61156D01*
X45281Y-61201D01*
X45257Y-61247D01*
X45237Y-61295D01*
X45221Y-61345D01*
X45210Y-61396D01*
X45203Y-61448D01*
X45200Y-61500D01*
X48300Y-61500D02*
X46400Y-61500D01*
X43300Y-61500D02*
X45200Y-61500D01*
X48800Y-61450D02*
X48800Y-41200D01*
X48300Y-41200D02*
X43300Y-41200D01*
X42800Y-41200D02*
X42800Y-61450D01*
G54D11*
X53043Y-55842D02*
X52443Y-55842D01*
X52443Y-55614D01*
X52471Y-55556D01*
X52500Y-55528D01*
X52557Y-55499D01*
X52643Y-55499D01*
X52700Y-55528D01*
X52729Y-55556D01*
X52757Y-55614D01*
X52757Y-55842D01*
X53043Y-54928D02*
X53043Y-55271D01*
X53043Y-55099D02*
X52443Y-55099D01*
X52529Y-55156D01*
X52586Y-55214D01*
X52614Y-55271D01*
G54D14*
X46087Y-58829D02*
X46100Y-58838D01*
X46113Y-58864D01*
X46113Y-58881D01*
X46100Y-58906D01*
X46073Y-58924D01*
X46047Y-58932D01*
X45993Y-58941D01*
X45953Y-58941D01*
X45900Y-58932D01*
X45873Y-58924D01*
X45847Y-58906D01*
X45833Y-58881D01*
X45833Y-58864D01*
X45847Y-58838D01*
X45860Y-58829D01*
X46113Y-58658D02*
X46113Y-58761D01*
X46113Y-58709D02*
X45833Y-58709D01*
X45873Y-58726D01*
X45900Y-58744D01*
X45913Y-58761D01*
G54D11*
X45343Y-61843D02*
X45343Y-62329D01*
X45371Y-62386D01*
X45400Y-62414D01*
X45457Y-62443D01*
X45571Y-62443D01*
X45629Y-62414D01*
X45657Y-62386D01*
X45686Y-62329D01*
X45686Y-61843D01*
X45943Y-61900D02*
X45972Y-61871D01*
X46029Y-61843D01*
X46172Y-61843D01*
X46229Y-61871D01*
X46258Y-61900D01*
X46286Y-61957D01*
X46286Y-62014D01*
X46258Y-62100D01*
X45915Y-62443D01*
X46286Y-62443D01*
X41043Y-54043D02*
X40443Y-54043D01*
X40871Y-53843D01*
X40443Y-53643D01*
X41043Y-53643D01*
X40871Y-53386D02*
X40871Y-53100D01*
X41043Y-53443D02*
X40443Y-53243D01*
X41043Y-53043D01*
X41043Y-52843D02*
X40443Y-52843D01*
X40443Y-52615D01*
X40471Y-52557D01*
X40500Y-52529D01*
X40557Y-52500D01*
X40643Y-52500D01*
X40700Y-52529D01*
X40729Y-52557D01*
X40757Y-52615D01*
X40757Y-52843D01*
X41043Y-51957D02*
X41043Y-52243D01*
X40443Y-52243D01*
X40729Y-51757D02*
X40729Y-51557D01*
X41043Y-51471D02*
X41043Y-51757D01*
X40443Y-51757D01*
X40443Y-51471D01*
X41100Y-51357D02*
X41100Y-50900D01*
X41043Y-50757D02*
X40443Y-50757D01*
X40871Y-50557D01*
X40443Y-50357D01*
X41043Y-50357D01*
X41043Y-50071D02*
X40443Y-50071D01*
X41043Y-49785D02*
X40443Y-49785D01*
X41043Y-49442D01*
X40443Y-49442D01*
X41043Y-49156D02*
X40443Y-49156D01*
M02*
