G04 (created by PCBNEW-RS274X (2011-07-19)-testing) date Thu 29 Dec 2011 06:25:09 PM PST*
G01*
G70*
G90*
%MOIN*%
G04 Gerber Fmt 3.4, Leading zero omitted, Abs format*
%FSLAX34Y34*%
G04 APERTURE LIST*
%ADD10C,0.006000*%
%ADD11C,0.133900*%
%ADD12R,0.100000X0.050000*%
%ADD13C,0.090000*%
%ADD14C,0.039000*%
%ADD15R,0.060000X0.060000*%
%ADD16C,0.060000*%
%ADD17C,0.015000*%
%ADD18C,0.010000*%
G04 APERTURE END LIST*
G54D10*
G54D11*
X40621Y-40788D03*
X40621Y-62066D03*
X55442Y-40788D03*
X55442Y-62066D03*
G54D12*
X46031Y-45427D03*
X46031Y-46427D03*
X46031Y-47427D03*
X46031Y-48427D03*
X46031Y-49427D03*
X46031Y-50427D03*
X46031Y-51427D03*
X46031Y-52427D03*
X46031Y-53427D03*
X46031Y-54427D03*
X46031Y-55427D03*
X46031Y-56427D03*
X46031Y-57427D03*
G54D13*
X48251Y-40127D03*
X48251Y-62727D03*
G54D14*
X52800Y-59240D03*
X52800Y-57272D03*
G54D15*
X55031Y-50927D03*
G54D16*
X55031Y-51927D03*
G54D17*
X45353Y-54427D02*
X45353Y-48427D01*
X46031Y-54427D02*
X45353Y-54427D01*
X46031Y-48427D02*
X45353Y-48427D01*
X46709Y-53427D02*
X46709Y-47427D01*
X46031Y-53427D02*
X46709Y-53427D01*
X46031Y-47427D02*
X46709Y-47427D01*
G54D10*
G36*
X46384Y-49928D02*
X45678Y-49928D01*
X45678Y-49926D01*
X45919Y-49927D01*
X45981Y-49865D01*
X45981Y-49527D01*
X45981Y-49477D01*
X45981Y-49377D01*
X45981Y-49327D01*
X45981Y-48989D01*
X45919Y-48927D01*
X45678Y-48927D01*
X45678Y-48926D01*
X46384Y-48926D01*
X46384Y-48927D01*
X46143Y-48927D01*
X46081Y-48989D01*
X46081Y-49327D01*
X46081Y-49377D01*
X46081Y-49477D01*
X46081Y-49527D01*
X46081Y-49865D01*
X46143Y-49927D01*
X46384Y-49926D01*
X46384Y-49928D01*
X46384Y-49928D01*
G37*
G54D18*
X46384Y-49928D02*
X45678Y-49928D01*
X45678Y-49926D01*
X45919Y-49927D01*
X45981Y-49865D01*
X45981Y-49527D01*
X45981Y-49477D01*
X45981Y-49377D01*
X45981Y-49327D01*
X45981Y-48989D01*
X45919Y-48927D01*
X45678Y-48927D01*
X45678Y-48926D01*
X46384Y-48926D01*
X46384Y-48927D01*
X46143Y-48927D01*
X46081Y-48989D01*
X46081Y-49327D01*
X46081Y-49377D01*
X46081Y-49477D01*
X46081Y-49527D01*
X46081Y-49865D01*
X46143Y-49927D01*
X46384Y-49926D01*
X46384Y-49928D01*
G54D10*
G36*
X56348Y-63139D02*
X53244Y-63139D01*
X53244Y-59329D01*
X53244Y-59152D01*
X53244Y-57361D01*
X53244Y-57184D01*
X53177Y-57021D01*
X53052Y-56896D01*
X52889Y-56828D01*
X52712Y-56828D01*
X52549Y-56895D01*
X52424Y-57020D01*
X52356Y-57183D01*
X52356Y-57360D01*
X52423Y-57523D01*
X52548Y-57648D01*
X52711Y-57716D01*
X52888Y-57716D01*
X53051Y-57649D01*
X53176Y-57524D01*
X53244Y-57361D01*
X53244Y-59152D01*
X53177Y-58989D01*
X53052Y-58864D01*
X52889Y-58796D01*
X52712Y-58796D01*
X52549Y-58863D01*
X52424Y-58988D01*
X52356Y-59151D01*
X52356Y-59328D01*
X52423Y-59491D01*
X52548Y-59616D01*
X52711Y-59684D01*
X52888Y-59684D01*
X53051Y-59617D01*
X53176Y-59492D01*
X53244Y-59329D01*
X53244Y-63139D01*
X48827Y-63139D01*
X48843Y-63124D01*
X48950Y-62867D01*
X48950Y-62589D01*
X48844Y-62332D01*
X48648Y-62135D01*
X48391Y-62028D01*
X48113Y-62028D01*
X47856Y-62134D01*
X47659Y-62330D01*
X47552Y-62587D01*
X47552Y-62865D01*
X47658Y-63122D01*
X47674Y-63139D01*
X47034Y-63139D01*
X47034Y-53427D01*
X47034Y-47427D01*
X47009Y-47303D01*
X46939Y-47197D01*
X46833Y-47127D01*
X46781Y-47116D01*
X46781Y-45539D01*
X46781Y-45315D01*
X46780Y-45226D01*
X46780Y-45127D01*
X46742Y-45036D01*
X46672Y-44966D01*
X46580Y-44928D01*
X46143Y-44927D01*
X46081Y-44989D01*
X46081Y-45377D01*
X46719Y-45377D01*
X46781Y-45315D01*
X46781Y-45539D01*
X46719Y-45477D01*
X46081Y-45477D01*
X46081Y-45865D01*
X46143Y-45927D01*
X46580Y-45926D01*
X46672Y-45888D01*
X46742Y-45818D01*
X46780Y-45727D01*
X46780Y-45628D01*
X46781Y-45539D01*
X46781Y-47116D01*
X46780Y-47116D01*
X46780Y-46727D01*
X46780Y-46628D01*
X46780Y-46128D01*
X46742Y-46036D01*
X46672Y-45966D01*
X46581Y-45928D01*
X46482Y-45928D01*
X45981Y-45928D01*
X45981Y-45865D01*
X45981Y-45477D01*
X45981Y-45377D01*
X45981Y-44989D01*
X45919Y-44927D01*
X45482Y-44928D01*
X45390Y-44966D01*
X45320Y-45036D01*
X45282Y-45127D01*
X45282Y-45226D01*
X45281Y-45315D01*
X45343Y-45377D01*
X45981Y-45377D01*
X45981Y-45477D01*
X45343Y-45477D01*
X45281Y-45539D01*
X45282Y-45628D01*
X45282Y-45727D01*
X45320Y-45818D01*
X45390Y-45888D01*
X45482Y-45926D01*
X45919Y-45927D01*
X45981Y-45865D01*
X45981Y-45928D01*
X45482Y-45928D01*
X45390Y-45966D01*
X45320Y-46036D01*
X45282Y-46127D01*
X45282Y-46226D01*
X45282Y-46726D01*
X45320Y-46818D01*
X45390Y-46888D01*
X45481Y-46926D01*
X45580Y-46926D01*
X46580Y-46926D01*
X46672Y-46888D01*
X46742Y-46818D01*
X46780Y-46727D01*
X46780Y-47116D01*
X46774Y-47115D01*
X46742Y-47036D01*
X46672Y-46966D01*
X46581Y-46928D01*
X46482Y-46928D01*
X45482Y-46928D01*
X45390Y-46966D01*
X45320Y-47036D01*
X45282Y-47127D01*
X45282Y-47226D01*
X45282Y-47726D01*
X45320Y-47818D01*
X45390Y-47888D01*
X45481Y-47926D01*
X45580Y-47926D01*
X46384Y-47926D01*
X46384Y-47928D01*
X45482Y-47928D01*
X45390Y-47966D01*
X45320Y-48036D01*
X45286Y-48115D01*
X45229Y-48127D01*
X45123Y-48197D01*
X45053Y-48303D01*
X45028Y-48427D01*
X45028Y-54427D01*
X45053Y-54551D01*
X45123Y-54657D01*
X45229Y-54727D01*
X45287Y-54738D01*
X45320Y-54818D01*
X45390Y-54888D01*
X45481Y-54926D01*
X45580Y-54926D01*
X46580Y-54926D01*
X46672Y-54888D01*
X46742Y-54818D01*
X46780Y-54727D01*
X46780Y-54628D01*
X46780Y-54128D01*
X46742Y-54036D01*
X46672Y-53966D01*
X46581Y-53928D01*
X46482Y-53928D01*
X45678Y-53928D01*
X45678Y-53926D01*
X46580Y-53926D01*
X46672Y-53888D01*
X46742Y-53818D01*
X46775Y-53738D01*
X46833Y-53727D01*
X46939Y-53657D01*
X47009Y-53551D01*
X47034Y-53427D01*
X47034Y-63139D01*
X46780Y-63139D01*
X46780Y-57727D01*
X46780Y-57628D01*
X46780Y-57128D01*
X46780Y-56727D01*
X46780Y-56628D01*
X46780Y-56128D01*
X46780Y-55727D01*
X46780Y-55628D01*
X46780Y-55128D01*
X46742Y-55036D01*
X46672Y-54966D01*
X46581Y-54928D01*
X46482Y-54928D01*
X45482Y-54928D01*
X45390Y-54966D01*
X45320Y-55036D01*
X45282Y-55127D01*
X45282Y-55226D01*
X45282Y-55726D01*
X45320Y-55818D01*
X45390Y-55888D01*
X45481Y-55926D01*
X45580Y-55926D01*
X46580Y-55926D01*
X46672Y-55888D01*
X46742Y-55818D01*
X46780Y-55727D01*
X46780Y-56128D01*
X46742Y-56036D01*
X46672Y-55966D01*
X46581Y-55928D01*
X46482Y-55928D01*
X45482Y-55928D01*
X45390Y-55966D01*
X45320Y-56036D01*
X45282Y-56127D01*
X45282Y-56226D01*
X45282Y-56726D01*
X45320Y-56818D01*
X45390Y-56888D01*
X45481Y-56926D01*
X45580Y-56926D01*
X46580Y-56926D01*
X46672Y-56888D01*
X46742Y-56818D01*
X46780Y-56727D01*
X46780Y-57128D01*
X46742Y-57036D01*
X46672Y-56966D01*
X46581Y-56928D01*
X46482Y-56928D01*
X45482Y-56928D01*
X45390Y-56966D01*
X45320Y-57036D01*
X45282Y-57127D01*
X45282Y-57226D01*
X45282Y-57726D01*
X45320Y-57818D01*
X45390Y-57888D01*
X45481Y-57926D01*
X45580Y-57926D01*
X46580Y-57926D01*
X46672Y-57888D01*
X46742Y-57818D01*
X46780Y-57727D01*
X46780Y-63139D01*
X39715Y-63139D01*
X39715Y-62279D01*
X39842Y-62586D01*
X40100Y-62845D01*
X40437Y-62985D01*
X40803Y-62985D01*
X41141Y-62845D01*
X41400Y-62587D01*
X41540Y-62250D01*
X41540Y-61884D01*
X41400Y-61546D01*
X41142Y-61287D01*
X40805Y-61147D01*
X40439Y-61147D01*
X40101Y-61287D01*
X39842Y-61545D01*
X39715Y-61850D01*
X39715Y-41001D01*
X39842Y-41308D01*
X40100Y-41567D01*
X40437Y-41707D01*
X40803Y-41707D01*
X41141Y-41567D01*
X41400Y-41309D01*
X41540Y-40972D01*
X41540Y-40606D01*
X41400Y-40268D01*
X41142Y-40009D01*
X40805Y-39869D01*
X40439Y-39869D01*
X40101Y-40009D01*
X39842Y-40267D01*
X39715Y-40572D01*
X39715Y-39715D01*
X47674Y-39715D01*
X47659Y-39730D01*
X47552Y-39987D01*
X47552Y-40265D01*
X47658Y-40522D01*
X47854Y-40719D01*
X48111Y-40826D01*
X48389Y-40826D01*
X48646Y-40720D01*
X48843Y-40524D01*
X48950Y-40267D01*
X48950Y-39989D01*
X48844Y-39732D01*
X48827Y-39715D01*
X56348Y-39715D01*
X56348Y-40574D01*
X56221Y-40268D01*
X55963Y-40009D01*
X55626Y-39869D01*
X55260Y-39869D01*
X54922Y-40009D01*
X54663Y-40267D01*
X54523Y-40604D01*
X54523Y-40970D01*
X54663Y-41308D01*
X54921Y-41567D01*
X55258Y-41707D01*
X55624Y-41707D01*
X55962Y-41567D01*
X56221Y-41309D01*
X56348Y-41003D01*
X56348Y-61852D01*
X56221Y-61546D01*
X55963Y-61287D01*
X55626Y-61147D01*
X55580Y-61147D01*
X55580Y-52036D01*
X55580Y-51818D01*
X55496Y-51616D01*
X55356Y-51476D01*
X55380Y-51476D01*
X55472Y-51438D01*
X55542Y-51368D01*
X55580Y-51277D01*
X55580Y-51178D01*
X55580Y-50578D01*
X55542Y-50486D01*
X55472Y-50416D01*
X55381Y-50378D01*
X55282Y-50378D01*
X54682Y-50378D01*
X54590Y-50416D01*
X54520Y-50486D01*
X54482Y-50577D01*
X54482Y-50676D01*
X54482Y-51276D01*
X54520Y-51368D01*
X54590Y-51438D01*
X54681Y-51476D01*
X54706Y-51476D01*
X54566Y-51616D01*
X54482Y-51818D01*
X54482Y-52036D01*
X54566Y-52238D01*
X54720Y-52392D01*
X54922Y-52476D01*
X55140Y-52476D01*
X55342Y-52392D01*
X55496Y-52238D01*
X55580Y-52036D01*
X55580Y-61147D01*
X55260Y-61147D01*
X54922Y-61287D01*
X54663Y-61545D01*
X54523Y-61882D01*
X54523Y-62248D01*
X54663Y-62586D01*
X54921Y-62845D01*
X55258Y-62985D01*
X55624Y-62985D01*
X55962Y-62845D01*
X56221Y-62587D01*
X56348Y-62281D01*
X56348Y-63139D01*
X56348Y-63139D01*
G37*
G54D18*
X56348Y-63139D02*
X53244Y-63139D01*
X53244Y-59329D01*
X53244Y-59152D01*
X53244Y-57361D01*
X53244Y-57184D01*
X53177Y-57021D01*
X53052Y-56896D01*
X52889Y-56828D01*
X52712Y-56828D01*
X52549Y-56895D01*
X52424Y-57020D01*
X52356Y-57183D01*
X52356Y-57360D01*
X52423Y-57523D01*
X52548Y-57648D01*
X52711Y-57716D01*
X52888Y-57716D01*
X53051Y-57649D01*
X53176Y-57524D01*
X53244Y-57361D01*
X53244Y-59152D01*
X53177Y-58989D01*
X53052Y-58864D01*
X52889Y-58796D01*
X52712Y-58796D01*
X52549Y-58863D01*
X52424Y-58988D01*
X52356Y-59151D01*
X52356Y-59328D01*
X52423Y-59491D01*
X52548Y-59616D01*
X52711Y-59684D01*
X52888Y-59684D01*
X53051Y-59617D01*
X53176Y-59492D01*
X53244Y-59329D01*
X53244Y-63139D01*
X48827Y-63139D01*
X48843Y-63124D01*
X48950Y-62867D01*
X48950Y-62589D01*
X48844Y-62332D01*
X48648Y-62135D01*
X48391Y-62028D01*
X48113Y-62028D01*
X47856Y-62134D01*
X47659Y-62330D01*
X47552Y-62587D01*
X47552Y-62865D01*
X47658Y-63122D01*
X47674Y-63139D01*
X47034Y-63139D01*
X47034Y-53427D01*
X47034Y-47427D01*
X47009Y-47303D01*
X46939Y-47197D01*
X46833Y-47127D01*
X46781Y-47116D01*
X46781Y-45539D01*
X46781Y-45315D01*
X46780Y-45226D01*
X46780Y-45127D01*
X46742Y-45036D01*
X46672Y-44966D01*
X46580Y-44928D01*
X46143Y-44927D01*
X46081Y-44989D01*
X46081Y-45377D01*
X46719Y-45377D01*
X46781Y-45315D01*
X46781Y-45539D01*
X46719Y-45477D01*
X46081Y-45477D01*
X46081Y-45865D01*
X46143Y-45927D01*
X46580Y-45926D01*
X46672Y-45888D01*
X46742Y-45818D01*
X46780Y-45727D01*
X46780Y-45628D01*
X46781Y-45539D01*
X46781Y-47116D01*
X46780Y-47116D01*
X46780Y-46727D01*
X46780Y-46628D01*
X46780Y-46128D01*
X46742Y-46036D01*
X46672Y-45966D01*
X46581Y-45928D01*
X46482Y-45928D01*
X45981Y-45928D01*
X45981Y-45865D01*
X45981Y-45477D01*
X45981Y-45377D01*
X45981Y-44989D01*
X45919Y-44927D01*
X45482Y-44928D01*
X45390Y-44966D01*
X45320Y-45036D01*
X45282Y-45127D01*
X45282Y-45226D01*
X45281Y-45315D01*
X45343Y-45377D01*
X45981Y-45377D01*
X45981Y-45477D01*
X45343Y-45477D01*
X45281Y-45539D01*
X45282Y-45628D01*
X45282Y-45727D01*
X45320Y-45818D01*
X45390Y-45888D01*
X45482Y-45926D01*
X45919Y-45927D01*
X45981Y-45865D01*
X45981Y-45928D01*
X45482Y-45928D01*
X45390Y-45966D01*
X45320Y-46036D01*
X45282Y-46127D01*
X45282Y-46226D01*
X45282Y-46726D01*
X45320Y-46818D01*
X45390Y-46888D01*
X45481Y-46926D01*
X45580Y-46926D01*
X46580Y-46926D01*
X46672Y-46888D01*
X46742Y-46818D01*
X46780Y-46727D01*
X46780Y-47116D01*
X46774Y-47115D01*
X46742Y-47036D01*
X46672Y-46966D01*
X46581Y-46928D01*
X46482Y-46928D01*
X45482Y-46928D01*
X45390Y-46966D01*
X45320Y-47036D01*
X45282Y-47127D01*
X45282Y-47226D01*
X45282Y-47726D01*
X45320Y-47818D01*
X45390Y-47888D01*
X45481Y-47926D01*
X45580Y-47926D01*
X46384Y-47926D01*
X46384Y-47928D01*
X45482Y-47928D01*
X45390Y-47966D01*
X45320Y-48036D01*
X45286Y-48115D01*
X45229Y-48127D01*
X45123Y-48197D01*
X45053Y-48303D01*
X45028Y-48427D01*
X45028Y-54427D01*
X45053Y-54551D01*
X45123Y-54657D01*
X45229Y-54727D01*
X45287Y-54738D01*
X45320Y-54818D01*
X45390Y-54888D01*
X45481Y-54926D01*
X45580Y-54926D01*
X46580Y-54926D01*
X46672Y-54888D01*
X46742Y-54818D01*
X46780Y-54727D01*
X46780Y-54628D01*
X46780Y-54128D01*
X46742Y-54036D01*
X46672Y-53966D01*
X46581Y-53928D01*
X46482Y-53928D01*
X45678Y-53928D01*
X45678Y-53926D01*
X46580Y-53926D01*
X46672Y-53888D01*
X46742Y-53818D01*
X46775Y-53738D01*
X46833Y-53727D01*
X46939Y-53657D01*
X47009Y-53551D01*
X47034Y-53427D01*
X47034Y-63139D01*
X46780Y-63139D01*
X46780Y-57727D01*
X46780Y-57628D01*
X46780Y-57128D01*
X46780Y-56727D01*
X46780Y-56628D01*
X46780Y-56128D01*
X46780Y-55727D01*
X46780Y-55628D01*
X46780Y-55128D01*
X46742Y-55036D01*
X46672Y-54966D01*
X46581Y-54928D01*
X46482Y-54928D01*
X45482Y-54928D01*
X45390Y-54966D01*
X45320Y-55036D01*
X45282Y-55127D01*
X45282Y-55226D01*
X45282Y-55726D01*
X45320Y-55818D01*
X45390Y-55888D01*
X45481Y-55926D01*
X45580Y-55926D01*
X46580Y-55926D01*
X46672Y-55888D01*
X46742Y-55818D01*
X46780Y-55727D01*
X46780Y-56128D01*
X46742Y-56036D01*
X46672Y-55966D01*
X46581Y-55928D01*
X46482Y-55928D01*
X45482Y-55928D01*
X45390Y-55966D01*
X45320Y-56036D01*
X45282Y-56127D01*
X45282Y-56226D01*
X45282Y-56726D01*
X45320Y-56818D01*
X45390Y-56888D01*
X45481Y-56926D01*
X45580Y-56926D01*
X46580Y-56926D01*
X46672Y-56888D01*
X46742Y-56818D01*
X46780Y-56727D01*
X46780Y-57128D01*
X46742Y-57036D01*
X46672Y-56966D01*
X46581Y-56928D01*
X46482Y-56928D01*
X45482Y-56928D01*
X45390Y-56966D01*
X45320Y-57036D01*
X45282Y-57127D01*
X45282Y-57226D01*
X45282Y-57726D01*
X45320Y-57818D01*
X45390Y-57888D01*
X45481Y-57926D01*
X45580Y-57926D01*
X46580Y-57926D01*
X46672Y-57888D01*
X46742Y-57818D01*
X46780Y-57727D01*
X46780Y-63139D01*
X39715Y-63139D01*
X39715Y-62279D01*
X39842Y-62586D01*
X40100Y-62845D01*
X40437Y-62985D01*
X40803Y-62985D01*
X41141Y-62845D01*
X41400Y-62587D01*
X41540Y-62250D01*
X41540Y-61884D01*
X41400Y-61546D01*
X41142Y-61287D01*
X40805Y-61147D01*
X40439Y-61147D01*
X40101Y-61287D01*
X39842Y-61545D01*
X39715Y-61850D01*
X39715Y-41001D01*
X39842Y-41308D01*
X40100Y-41567D01*
X40437Y-41707D01*
X40803Y-41707D01*
X41141Y-41567D01*
X41400Y-41309D01*
X41540Y-40972D01*
X41540Y-40606D01*
X41400Y-40268D01*
X41142Y-40009D01*
X40805Y-39869D01*
X40439Y-39869D01*
X40101Y-40009D01*
X39842Y-40267D01*
X39715Y-40572D01*
X39715Y-39715D01*
X47674Y-39715D01*
X47659Y-39730D01*
X47552Y-39987D01*
X47552Y-40265D01*
X47658Y-40522D01*
X47854Y-40719D01*
X48111Y-40826D01*
X48389Y-40826D01*
X48646Y-40720D01*
X48843Y-40524D01*
X48950Y-40267D01*
X48950Y-39989D01*
X48844Y-39732D01*
X48827Y-39715D01*
X56348Y-39715D01*
X56348Y-40574D01*
X56221Y-40268D01*
X55963Y-40009D01*
X55626Y-39869D01*
X55260Y-39869D01*
X54922Y-40009D01*
X54663Y-40267D01*
X54523Y-40604D01*
X54523Y-40970D01*
X54663Y-41308D01*
X54921Y-41567D01*
X55258Y-41707D01*
X55624Y-41707D01*
X55962Y-41567D01*
X56221Y-41309D01*
X56348Y-41003D01*
X56348Y-61852D01*
X56221Y-61546D01*
X55963Y-61287D01*
X55626Y-61147D01*
X55580Y-61147D01*
X55580Y-52036D01*
X55580Y-51818D01*
X55496Y-51616D01*
X55356Y-51476D01*
X55380Y-51476D01*
X55472Y-51438D01*
X55542Y-51368D01*
X55580Y-51277D01*
X55580Y-51178D01*
X55580Y-50578D01*
X55542Y-50486D01*
X55472Y-50416D01*
X55381Y-50378D01*
X55282Y-50378D01*
X54682Y-50378D01*
X54590Y-50416D01*
X54520Y-50486D01*
X54482Y-50577D01*
X54482Y-50676D01*
X54482Y-51276D01*
X54520Y-51368D01*
X54590Y-51438D01*
X54681Y-51476D01*
X54706Y-51476D01*
X54566Y-51616D01*
X54482Y-51818D01*
X54482Y-52036D01*
X54566Y-52238D01*
X54720Y-52392D01*
X54922Y-52476D01*
X55140Y-52476D01*
X55342Y-52392D01*
X55496Y-52238D01*
X55580Y-52036D01*
X55580Y-61147D01*
X55260Y-61147D01*
X54922Y-61287D01*
X54663Y-61545D01*
X54523Y-61882D01*
X54523Y-62248D01*
X54663Y-62586D01*
X54921Y-62845D01*
X55258Y-62985D01*
X55624Y-62985D01*
X55962Y-62845D01*
X56221Y-62587D01*
X56348Y-62281D01*
X56348Y-63139D01*
M02*
