G04 (created by PCBNEW-RS274X (2011-07-19)-testing) date Fri 30 Dec 2011 11:25:08 AM PST*
G01*
G70*
G90*
%MOIN*%
G04 Gerber Fmt 3.4, Leading zero omitted, Abs format*
%FSLAX34Y34*%
G04 APERTURE LIST*
%ADD10C,0.006000*%
%ADD11C,0.012000*%
%ADD12C,0.005000*%
%ADD13C,0.015000*%
G04 APERTURE END LIST*
G54D10*
G54D11*
X47424Y-53614D02*
X46624Y-53614D01*
X46624Y-53214D02*
X46624Y-53100D01*
X46662Y-53042D01*
X46738Y-52985D01*
X46890Y-52957D01*
X47157Y-52957D01*
X47310Y-52985D01*
X47386Y-53042D01*
X47424Y-53100D01*
X47424Y-53214D01*
X47386Y-53271D01*
X47310Y-53328D01*
X47157Y-53357D01*
X46890Y-53357D01*
X46738Y-53328D01*
X46662Y-53271D01*
X46624Y-53214D01*
X47424Y-51899D02*
X47043Y-52099D01*
X47424Y-52242D02*
X46624Y-52242D01*
X46624Y-52014D01*
X46662Y-51956D01*
X46700Y-51928D01*
X46776Y-51899D01*
X46890Y-51899D01*
X46967Y-51928D01*
X47005Y-51956D01*
X47043Y-52014D01*
X47043Y-52242D01*
X47424Y-51556D02*
X47386Y-51614D01*
X47348Y-51642D01*
X47271Y-51671D01*
X47043Y-51671D01*
X46967Y-51642D01*
X46929Y-51614D01*
X46890Y-51556D01*
X46890Y-51471D01*
X46929Y-51414D01*
X46967Y-51385D01*
X47043Y-51356D01*
X47271Y-51356D01*
X47348Y-51385D01*
X47386Y-51414D01*
X47424Y-51471D01*
X47424Y-51556D01*
X47424Y-50842D02*
X46624Y-50842D01*
X47386Y-50842D02*
X47424Y-50899D01*
X47424Y-51013D01*
X47386Y-51071D01*
X47348Y-51099D01*
X47271Y-51128D01*
X47043Y-51128D01*
X46967Y-51099D01*
X46929Y-51071D01*
X46890Y-51013D01*
X46890Y-50899D01*
X46929Y-50842D01*
X47386Y-50328D02*
X47424Y-50385D01*
X47424Y-50499D01*
X47386Y-50556D01*
X47310Y-50585D01*
X47005Y-50585D01*
X46929Y-50556D01*
X46890Y-50499D01*
X46890Y-50385D01*
X46929Y-50328D01*
X47005Y-50299D01*
X47081Y-50299D01*
X47157Y-50585D01*
X47424Y-49956D02*
X47386Y-50014D01*
X47348Y-50042D01*
X47271Y-50071D01*
X47043Y-50071D01*
X46967Y-50042D01*
X46929Y-50014D01*
X46890Y-49956D01*
X46890Y-49871D01*
X46929Y-49814D01*
X46967Y-49785D01*
X47043Y-49756D01*
X47271Y-49756D01*
X47348Y-49785D01*
X47386Y-49814D01*
X47424Y-49871D01*
X47424Y-49956D01*
X48588Y-57170D02*
X48626Y-57199D01*
X48664Y-57285D01*
X48664Y-57342D01*
X48626Y-57427D01*
X48550Y-57485D01*
X48473Y-57513D01*
X48321Y-57542D01*
X48207Y-57542D01*
X48054Y-57513D01*
X47978Y-57485D01*
X47902Y-57427D01*
X47864Y-57342D01*
X47864Y-57285D01*
X47902Y-57199D01*
X47940Y-57170D01*
X48664Y-56656D02*
X48245Y-56656D01*
X48169Y-56685D01*
X48130Y-56742D01*
X48130Y-56856D01*
X48169Y-56913D01*
X48626Y-56656D02*
X48664Y-56713D01*
X48664Y-56856D01*
X48626Y-56913D01*
X48550Y-56942D01*
X48473Y-56942D01*
X48397Y-56913D01*
X48359Y-56856D01*
X48359Y-56713D01*
X48321Y-56656D01*
X48130Y-56370D02*
X48930Y-56370D01*
X48169Y-56370D02*
X48130Y-56313D01*
X48130Y-56199D01*
X48169Y-56142D01*
X48207Y-56113D01*
X48283Y-56084D01*
X48511Y-56084D01*
X48588Y-56113D01*
X48626Y-56142D01*
X48664Y-56199D01*
X48664Y-56313D01*
X48626Y-56370D01*
X48664Y-55827D02*
X48130Y-55827D01*
X47864Y-55827D02*
X47902Y-55856D01*
X47940Y-55827D01*
X47902Y-55799D01*
X47864Y-55827D01*
X47940Y-55827D01*
X48664Y-55455D02*
X48626Y-55513D01*
X48550Y-55541D01*
X47864Y-55541D01*
X48664Y-55141D02*
X48626Y-55199D01*
X48550Y-55227D01*
X47864Y-55227D01*
X48664Y-54656D02*
X48245Y-54656D01*
X48169Y-54685D01*
X48130Y-54742D01*
X48130Y-54856D01*
X48169Y-54913D01*
X48626Y-54656D02*
X48664Y-54713D01*
X48664Y-54856D01*
X48626Y-54913D01*
X48550Y-54942D01*
X48473Y-54942D01*
X48397Y-54913D01*
X48359Y-54856D01*
X48359Y-54713D01*
X48321Y-54656D01*
X48664Y-54370D02*
X48130Y-54370D01*
X48283Y-54370D02*
X48207Y-54342D01*
X48169Y-54313D01*
X48130Y-54256D01*
X48130Y-54199D01*
X48130Y-54056D02*
X48664Y-53913D01*
X48130Y-53771D02*
X48664Y-53913D01*
X48854Y-53971D01*
X48892Y-53999D01*
X48930Y-54056D01*
X48664Y-52799D02*
X48664Y-53085D01*
X47864Y-53085D01*
X48245Y-52599D02*
X48245Y-52399D01*
X48664Y-52313D02*
X48664Y-52599D01*
X47864Y-52599D01*
X47864Y-52313D01*
X48664Y-52056D02*
X47864Y-52056D01*
X47864Y-51913D01*
X47902Y-51828D01*
X47978Y-51770D01*
X48054Y-51742D01*
X48207Y-51713D01*
X48321Y-51713D01*
X48473Y-51742D01*
X48550Y-51770D01*
X48626Y-51828D01*
X48664Y-51913D01*
X48664Y-52056D01*
X48245Y-50799D02*
X48283Y-50713D01*
X48321Y-50685D01*
X48397Y-50656D01*
X48511Y-50656D01*
X48588Y-50685D01*
X48626Y-50713D01*
X48664Y-50771D01*
X48664Y-50999D01*
X47864Y-50999D01*
X47864Y-50799D01*
X47902Y-50742D01*
X47940Y-50713D01*
X48016Y-50685D01*
X48092Y-50685D01*
X48169Y-50713D01*
X48207Y-50742D01*
X48245Y-50799D01*
X48245Y-50999D01*
X48664Y-50313D02*
X48626Y-50371D01*
X48588Y-50399D01*
X48511Y-50428D01*
X48283Y-50428D01*
X48207Y-50399D01*
X48169Y-50371D01*
X48130Y-50313D01*
X48130Y-50228D01*
X48169Y-50171D01*
X48207Y-50142D01*
X48283Y-50113D01*
X48511Y-50113D01*
X48588Y-50142D01*
X48626Y-50171D01*
X48664Y-50228D01*
X48664Y-50313D01*
X48664Y-49599D02*
X48245Y-49599D01*
X48169Y-49628D01*
X48130Y-49685D01*
X48130Y-49799D01*
X48169Y-49856D01*
X48626Y-49599D02*
X48664Y-49656D01*
X48664Y-49799D01*
X48626Y-49856D01*
X48550Y-49885D01*
X48473Y-49885D01*
X48397Y-49856D01*
X48359Y-49799D01*
X48359Y-49656D01*
X48321Y-49599D01*
X48664Y-49313D02*
X48130Y-49313D01*
X48283Y-49313D02*
X48207Y-49285D01*
X48169Y-49256D01*
X48130Y-49199D01*
X48130Y-49142D01*
X48664Y-48685D02*
X47864Y-48685D01*
X48626Y-48685D02*
X48664Y-48742D01*
X48664Y-48856D01*
X48626Y-48914D01*
X48588Y-48942D01*
X48511Y-48971D01*
X48283Y-48971D01*
X48207Y-48942D01*
X48169Y-48914D01*
X48130Y-48856D01*
X48130Y-48742D01*
X48169Y-48685D01*
X48130Y-47999D02*
X48664Y-47856D01*
X48130Y-47714D01*
X48664Y-46714D02*
X48664Y-47057D01*
X48664Y-46885D02*
X47864Y-46885D01*
X47978Y-46942D01*
X48054Y-47000D01*
X48092Y-47057D01*
X48588Y-46457D02*
X48626Y-46429D01*
X48664Y-46457D01*
X48626Y-46486D01*
X48588Y-46457D01*
X48664Y-46457D01*
X47864Y-46057D02*
X47864Y-46000D01*
X47902Y-45943D01*
X47940Y-45914D01*
X48016Y-45885D01*
X48169Y-45857D01*
X48359Y-45857D01*
X48511Y-45885D01*
X48588Y-45914D01*
X48626Y-45943D01*
X48664Y-46000D01*
X48664Y-46057D01*
X48626Y-46114D01*
X48588Y-46143D01*
X48511Y-46171D01*
X48359Y-46200D01*
X48169Y-46200D01*
X48016Y-46171D01*
X47940Y-46143D01*
X47902Y-46114D01*
X47864Y-46057D01*
G54D12*
X40810Y-45803D02*
X41710Y-45803D01*
X41710Y-45803D02*
X41710Y-45153D01*
X40810Y-44453D02*
X40810Y-43803D01*
X40810Y-43803D02*
X41710Y-43803D01*
X41710Y-43803D02*
X41710Y-44453D01*
X40810Y-45153D02*
X40810Y-45803D01*
X44120Y-61752D02*
X44119Y-61761D01*
X44116Y-61771D01*
X44111Y-61779D01*
X44105Y-61787D01*
X44097Y-61793D01*
X44089Y-61798D01*
X44080Y-61800D01*
X44070Y-61801D01*
X44061Y-61801D01*
X44052Y-61798D01*
X44043Y-61793D01*
X44036Y-61787D01*
X44029Y-61780D01*
X44025Y-61771D01*
X44022Y-61762D01*
X44021Y-61752D01*
X44021Y-61743D01*
X44024Y-61734D01*
X44028Y-61725D01*
X44035Y-61718D01*
X44042Y-61711D01*
X44050Y-61707D01*
X44060Y-61704D01*
X44069Y-61703D01*
X44078Y-61703D01*
X44088Y-61706D01*
X44096Y-61710D01*
X44104Y-61716D01*
X44110Y-61724D01*
X44115Y-61732D01*
X44118Y-61741D01*
X44119Y-61751D01*
X44120Y-61752D01*
X44070Y-62202D02*
X44070Y-61802D01*
X44070Y-61802D02*
X44670Y-61802D01*
X44670Y-61802D02*
X44670Y-62202D01*
X44670Y-62602D02*
X44670Y-63002D01*
X44670Y-63002D02*
X44070Y-63002D01*
X44070Y-63002D02*
X44070Y-62602D01*
X44120Y-60177D02*
X44119Y-60186D01*
X44116Y-60196D01*
X44111Y-60204D01*
X44105Y-60212D01*
X44097Y-60218D01*
X44089Y-60223D01*
X44080Y-60225D01*
X44070Y-60226D01*
X44061Y-60226D01*
X44052Y-60223D01*
X44043Y-60218D01*
X44036Y-60212D01*
X44029Y-60205D01*
X44025Y-60196D01*
X44022Y-60187D01*
X44021Y-60177D01*
X44021Y-60168D01*
X44024Y-60159D01*
X44028Y-60150D01*
X44035Y-60143D01*
X44042Y-60136D01*
X44050Y-60132D01*
X44060Y-60129D01*
X44069Y-60128D01*
X44078Y-60128D01*
X44088Y-60131D01*
X44096Y-60135D01*
X44104Y-60141D01*
X44110Y-60149D01*
X44115Y-60157D01*
X44118Y-60166D01*
X44119Y-60176D01*
X44120Y-60177D01*
X44070Y-60627D02*
X44070Y-60227D01*
X44070Y-60227D02*
X44670Y-60227D01*
X44670Y-60227D02*
X44670Y-60627D01*
X44670Y-61027D02*
X44670Y-61427D01*
X44670Y-61427D02*
X44070Y-61427D01*
X44070Y-61427D02*
X44070Y-61027D01*
X44120Y-58602D02*
X44119Y-58611D01*
X44116Y-58621D01*
X44111Y-58629D01*
X44105Y-58637D01*
X44097Y-58643D01*
X44089Y-58648D01*
X44080Y-58650D01*
X44070Y-58651D01*
X44061Y-58651D01*
X44052Y-58648D01*
X44043Y-58643D01*
X44036Y-58637D01*
X44029Y-58630D01*
X44025Y-58621D01*
X44022Y-58612D01*
X44021Y-58602D01*
X44021Y-58593D01*
X44024Y-58584D01*
X44028Y-58575D01*
X44035Y-58568D01*
X44042Y-58561D01*
X44050Y-58557D01*
X44060Y-58554D01*
X44069Y-58553D01*
X44078Y-58553D01*
X44088Y-58556D01*
X44096Y-58560D01*
X44104Y-58566D01*
X44110Y-58574D01*
X44115Y-58582D01*
X44118Y-58591D01*
X44119Y-58601D01*
X44120Y-58602D01*
X44070Y-59052D02*
X44070Y-58652D01*
X44070Y-58652D02*
X44670Y-58652D01*
X44670Y-58652D02*
X44670Y-59052D01*
X44670Y-59452D02*
X44670Y-59852D01*
X44670Y-59852D02*
X44070Y-59852D01*
X44070Y-59852D02*
X44070Y-59452D01*
X44120Y-57027D02*
X44119Y-57036D01*
X44116Y-57046D01*
X44111Y-57054D01*
X44105Y-57062D01*
X44097Y-57068D01*
X44089Y-57073D01*
X44080Y-57075D01*
X44070Y-57076D01*
X44061Y-57076D01*
X44052Y-57073D01*
X44043Y-57068D01*
X44036Y-57062D01*
X44029Y-57055D01*
X44025Y-57046D01*
X44022Y-57037D01*
X44021Y-57027D01*
X44021Y-57018D01*
X44024Y-57009D01*
X44028Y-57000D01*
X44035Y-56993D01*
X44042Y-56986D01*
X44050Y-56982D01*
X44060Y-56979D01*
X44069Y-56978D01*
X44078Y-56978D01*
X44088Y-56981D01*
X44096Y-56985D01*
X44104Y-56991D01*
X44110Y-56999D01*
X44115Y-57007D01*
X44118Y-57016D01*
X44119Y-57026D01*
X44120Y-57027D01*
X44070Y-57477D02*
X44070Y-57077D01*
X44070Y-57077D02*
X44670Y-57077D01*
X44670Y-57077D02*
X44670Y-57477D01*
X44670Y-57877D02*
X44670Y-58277D01*
X44670Y-58277D02*
X44070Y-58277D01*
X44070Y-58277D02*
X44070Y-57877D01*
X44120Y-55452D02*
X44119Y-55461D01*
X44116Y-55471D01*
X44111Y-55479D01*
X44105Y-55487D01*
X44097Y-55493D01*
X44089Y-55498D01*
X44080Y-55500D01*
X44070Y-55501D01*
X44061Y-55501D01*
X44052Y-55498D01*
X44043Y-55493D01*
X44036Y-55487D01*
X44029Y-55480D01*
X44025Y-55471D01*
X44022Y-55462D01*
X44021Y-55452D01*
X44021Y-55443D01*
X44024Y-55434D01*
X44028Y-55425D01*
X44035Y-55418D01*
X44042Y-55411D01*
X44050Y-55407D01*
X44060Y-55404D01*
X44069Y-55403D01*
X44078Y-55403D01*
X44088Y-55406D01*
X44096Y-55410D01*
X44104Y-55416D01*
X44110Y-55424D01*
X44115Y-55432D01*
X44118Y-55441D01*
X44119Y-55451D01*
X44120Y-55452D01*
X44070Y-55902D02*
X44070Y-55502D01*
X44070Y-55502D02*
X44670Y-55502D01*
X44670Y-55502D02*
X44670Y-55902D01*
X44670Y-56302D02*
X44670Y-56702D01*
X44670Y-56702D02*
X44070Y-56702D01*
X44070Y-56702D02*
X44070Y-56302D01*
X44120Y-53878D02*
X44119Y-53887D01*
X44116Y-53897D01*
X44111Y-53905D01*
X44105Y-53913D01*
X44097Y-53919D01*
X44089Y-53924D01*
X44080Y-53926D01*
X44070Y-53927D01*
X44061Y-53927D01*
X44052Y-53924D01*
X44043Y-53919D01*
X44036Y-53913D01*
X44029Y-53906D01*
X44025Y-53897D01*
X44022Y-53888D01*
X44021Y-53878D01*
X44021Y-53869D01*
X44024Y-53860D01*
X44028Y-53851D01*
X44035Y-53844D01*
X44042Y-53837D01*
X44050Y-53833D01*
X44060Y-53830D01*
X44069Y-53829D01*
X44078Y-53829D01*
X44088Y-53832D01*
X44096Y-53836D01*
X44104Y-53842D01*
X44110Y-53850D01*
X44115Y-53858D01*
X44118Y-53867D01*
X44119Y-53877D01*
X44120Y-53878D01*
X44070Y-54328D02*
X44070Y-53928D01*
X44070Y-53928D02*
X44670Y-53928D01*
X44670Y-53928D02*
X44670Y-54328D01*
X44670Y-54728D02*
X44670Y-55128D01*
X44670Y-55128D02*
X44070Y-55128D01*
X44070Y-55128D02*
X44070Y-54728D01*
X44120Y-52303D02*
X44119Y-52312D01*
X44116Y-52322D01*
X44111Y-52330D01*
X44105Y-52338D01*
X44097Y-52344D01*
X44089Y-52349D01*
X44080Y-52351D01*
X44070Y-52352D01*
X44061Y-52352D01*
X44052Y-52349D01*
X44043Y-52344D01*
X44036Y-52338D01*
X44029Y-52331D01*
X44025Y-52322D01*
X44022Y-52313D01*
X44021Y-52303D01*
X44021Y-52294D01*
X44024Y-52285D01*
X44028Y-52276D01*
X44035Y-52269D01*
X44042Y-52262D01*
X44050Y-52258D01*
X44060Y-52255D01*
X44069Y-52254D01*
X44078Y-52254D01*
X44088Y-52257D01*
X44096Y-52261D01*
X44104Y-52267D01*
X44110Y-52275D01*
X44115Y-52283D01*
X44118Y-52292D01*
X44119Y-52302D01*
X44120Y-52303D01*
X44070Y-52753D02*
X44070Y-52353D01*
X44070Y-52353D02*
X44670Y-52353D01*
X44670Y-52353D02*
X44670Y-52753D01*
X44670Y-53153D02*
X44670Y-53553D01*
X44670Y-53553D02*
X44070Y-53553D01*
X44070Y-53553D02*
X44070Y-53153D01*
X44120Y-50728D02*
X44119Y-50737D01*
X44116Y-50747D01*
X44111Y-50755D01*
X44105Y-50763D01*
X44097Y-50769D01*
X44089Y-50774D01*
X44080Y-50776D01*
X44070Y-50777D01*
X44061Y-50777D01*
X44052Y-50774D01*
X44043Y-50769D01*
X44036Y-50763D01*
X44029Y-50756D01*
X44025Y-50747D01*
X44022Y-50738D01*
X44021Y-50728D01*
X44021Y-50719D01*
X44024Y-50710D01*
X44028Y-50701D01*
X44035Y-50694D01*
X44042Y-50687D01*
X44050Y-50683D01*
X44060Y-50680D01*
X44069Y-50679D01*
X44078Y-50679D01*
X44088Y-50682D01*
X44096Y-50686D01*
X44104Y-50692D01*
X44110Y-50700D01*
X44115Y-50708D01*
X44118Y-50717D01*
X44119Y-50727D01*
X44120Y-50728D01*
X44070Y-51178D02*
X44070Y-50778D01*
X44070Y-50778D02*
X44670Y-50778D01*
X44670Y-50778D02*
X44670Y-51178D01*
X44670Y-51578D02*
X44670Y-51978D01*
X44670Y-51978D02*
X44070Y-51978D01*
X44070Y-51978D02*
X44070Y-51578D01*
X44120Y-49153D02*
X44119Y-49162D01*
X44116Y-49172D01*
X44111Y-49180D01*
X44105Y-49188D01*
X44097Y-49194D01*
X44089Y-49199D01*
X44080Y-49201D01*
X44070Y-49202D01*
X44061Y-49202D01*
X44052Y-49199D01*
X44043Y-49194D01*
X44036Y-49188D01*
X44029Y-49181D01*
X44025Y-49172D01*
X44022Y-49163D01*
X44021Y-49153D01*
X44021Y-49144D01*
X44024Y-49135D01*
X44028Y-49126D01*
X44035Y-49119D01*
X44042Y-49112D01*
X44050Y-49108D01*
X44060Y-49105D01*
X44069Y-49104D01*
X44078Y-49104D01*
X44088Y-49107D01*
X44096Y-49111D01*
X44104Y-49117D01*
X44110Y-49125D01*
X44115Y-49133D01*
X44118Y-49142D01*
X44119Y-49152D01*
X44120Y-49153D01*
X44070Y-49603D02*
X44070Y-49203D01*
X44070Y-49203D02*
X44670Y-49203D01*
X44670Y-49203D02*
X44670Y-49603D01*
X44670Y-50003D02*
X44670Y-50403D01*
X44670Y-50403D02*
X44070Y-50403D01*
X44070Y-50403D02*
X44070Y-50003D01*
X44120Y-47578D02*
X44119Y-47587D01*
X44116Y-47597D01*
X44111Y-47605D01*
X44105Y-47613D01*
X44097Y-47619D01*
X44089Y-47624D01*
X44080Y-47626D01*
X44070Y-47627D01*
X44061Y-47627D01*
X44052Y-47624D01*
X44043Y-47619D01*
X44036Y-47613D01*
X44029Y-47606D01*
X44025Y-47597D01*
X44022Y-47588D01*
X44021Y-47578D01*
X44021Y-47569D01*
X44024Y-47560D01*
X44028Y-47551D01*
X44035Y-47544D01*
X44042Y-47537D01*
X44050Y-47533D01*
X44060Y-47530D01*
X44069Y-47529D01*
X44078Y-47529D01*
X44088Y-47532D01*
X44096Y-47536D01*
X44104Y-47542D01*
X44110Y-47550D01*
X44115Y-47558D01*
X44118Y-47567D01*
X44119Y-47577D01*
X44120Y-47578D01*
X44070Y-48028D02*
X44070Y-47628D01*
X44070Y-47628D02*
X44670Y-47628D01*
X44670Y-47628D02*
X44670Y-48028D01*
X44670Y-48428D02*
X44670Y-48828D01*
X44670Y-48828D02*
X44070Y-48828D01*
X44070Y-48828D02*
X44070Y-48428D01*
X44120Y-46004D02*
X44119Y-46013D01*
X44116Y-46023D01*
X44111Y-46031D01*
X44105Y-46039D01*
X44097Y-46045D01*
X44089Y-46050D01*
X44080Y-46052D01*
X44070Y-46053D01*
X44061Y-46053D01*
X44052Y-46050D01*
X44043Y-46045D01*
X44036Y-46039D01*
X44029Y-46032D01*
X44025Y-46023D01*
X44022Y-46014D01*
X44021Y-46004D01*
X44021Y-45995D01*
X44024Y-45986D01*
X44028Y-45977D01*
X44035Y-45970D01*
X44042Y-45963D01*
X44050Y-45959D01*
X44060Y-45956D01*
X44069Y-45955D01*
X44078Y-45955D01*
X44088Y-45958D01*
X44096Y-45962D01*
X44104Y-45968D01*
X44110Y-45976D01*
X44115Y-45984D01*
X44118Y-45993D01*
X44119Y-46003D01*
X44120Y-46004D01*
X44070Y-46454D02*
X44070Y-46054D01*
X44070Y-46054D02*
X44670Y-46054D01*
X44670Y-46054D02*
X44670Y-46454D01*
X44670Y-46854D02*
X44670Y-47254D01*
X44670Y-47254D02*
X44070Y-47254D01*
X44070Y-47254D02*
X44070Y-46854D01*
X44120Y-44429D02*
X44119Y-44438D01*
X44116Y-44448D01*
X44111Y-44456D01*
X44105Y-44464D01*
X44097Y-44470D01*
X44089Y-44475D01*
X44080Y-44477D01*
X44070Y-44478D01*
X44061Y-44478D01*
X44052Y-44475D01*
X44043Y-44470D01*
X44036Y-44464D01*
X44029Y-44457D01*
X44025Y-44448D01*
X44022Y-44439D01*
X44021Y-44429D01*
X44021Y-44420D01*
X44024Y-44411D01*
X44028Y-44402D01*
X44035Y-44395D01*
X44042Y-44388D01*
X44050Y-44384D01*
X44060Y-44381D01*
X44069Y-44380D01*
X44078Y-44380D01*
X44088Y-44383D01*
X44096Y-44387D01*
X44104Y-44393D01*
X44110Y-44401D01*
X44115Y-44409D01*
X44118Y-44418D01*
X44119Y-44428D01*
X44120Y-44429D01*
X44070Y-44879D02*
X44070Y-44479D01*
X44070Y-44479D02*
X44670Y-44479D01*
X44670Y-44479D02*
X44670Y-44879D01*
X44670Y-45279D02*
X44670Y-45679D01*
X44670Y-45679D02*
X44070Y-45679D01*
X44070Y-45679D02*
X44070Y-45279D01*
X44120Y-42854D02*
X44119Y-42863D01*
X44116Y-42873D01*
X44111Y-42881D01*
X44105Y-42889D01*
X44097Y-42895D01*
X44089Y-42900D01*
X44080Y-42902D01*
X44070Y-42903D01*
X44061Y-42903D01*
X44052Y-42900D01*
X44043Y-42895D01*
X44036Y-42889D01*
X44029Y-42882D01*
X44025Y-42873D01*
X44022Y-42864D01*
X44021Y-42854D01*
X44021Y-42845D01*
X44024Y-42836D01*
X44028Y-42827D01*
X44035Y-42820D01*
X44042Y-42813D01*
X44050Y-42809D01*
X44060Y-42806D01*
X44069Y-42805D01*
X44078Y-42805D01*
X44088Y-42808D01*
X44096Y-42812D01*
X44104Y-42818D01*
X44110Y-42826D01*
X44115Y-42834D01*
X44118Y-42843D01*
X44119Y-42853D01*
X44120Y-42854D01*
X44070Y-43304D02*
X44070Y-42904D01*
X44070Y-42904D02*
X44670Y-42904D01*
X44670Y-42904D02*
X44670Y-43304D01*
X44670Y-43704D02*
X44670Y-44104D01*
X44670Y-44104D02*
X44070Y-44104D01*
X44070Y-44104D02*
X44070Y-43704D01*
X44120Y-41279D02*
X44119Y-41288D01*
X44116Y-41298D01*
X44111Y-41306D01*
X44105Y-41314D01*
X44097Y-41320D01*
X44089Y-41325D01*
X44080Y-41327D01*
X44070Y-41328D01*
X44061Y-41328D01*
X44052Y-41325D01*
X44043Y-41320D01*
X44036Y-41314D01*
X44029Y-41307D01*
X44025Y-41298D01*
X44022Y-41289D01*
X44021Y-41279D01*
X44021Y-41270D01*
X44024Y-41261D01*
X44028Y-41252D01*
X44035Y-41245D01*
X44042Y-41238D01*
X44050Y-41234D01*
X44060Y-41231D01*
X44069Y-41230D01*
X44078Y-41230D01*
X44088Y-41233D01*
X44096Y-41237D01*
X44104Y-41243D01*
X44110Y-41251D01*
X44115Y-41259D01*
X44118Y-41268D01*
X44119Y-41278D01*
X44120Y-41279D01*
X44070Y-41729D02*
X44070Y-41329D01*
X44070Y-41329D02*
X44670Y-41329D01*
X44670Y-41329D02*
X44670Y-41729D01*
X44670Y-42129D02*
X44670Y-42529D01*
X44670Y-42529D02*
X44070Y-42529D01*
X44070Y-42529D02*
X44070Y-42129D01*
X44120Y-39704D02*
X44119Y-39713D01*
X44116Y-39723D01*
X44111Y-39731D01*
X44105Y-39739D01*
X44097Y-39745D01*
X44089Y-39750D01*
X44080Y-39752D01*
X44070Y-39753D01*
X44061Y-39753D01*
X44052Y-39750D01*
X44043Y-39745D01*
X44036Y-39739D01*
X44029Y-39732D01*
X44025Y-39723D01*
X44022Y-39714D01*
X44021Y-39704D01*
X44021Y-39695D01*
X44024Y-39686D01*
X44028Y-39677D01*
X44035Y-39670D01*
X44042Y-39663D01*
X44050Y-39659D01*
X44060Y-39656D01*
X44069Y-39655D01*
X44078Y-39655D01*
X44088Y-39658D01*
X44096Y-39662D01*
X44104Y-39668D01*
X44110Y-39676D01*
X44115Y-39684D01*
X44118Y-39693D01*
X44119Y-39703D01*
X44120Y-39704D01*
X44070Y-40154D02*
X44070Y-39754D01*
X44070Y-39754D02*
X44670Y-39754D01*
X44670Y-39754D02*
X44670Y-40154D01*
X44670Y-40554D02*
X44670Y-40954D01*
X44670Y-40954D02*
X44070Y-40954D01*
X44070Y-40954D02*
X44070Y-40554D01*
G54D13*
X40260Y-49628D02*
X40260Y-53128D01*
X42260Y-49628D02*
X42260Y-53128D01*
X40260Y-49628D02*
X42260Y-49628D01*
X40260Y-53128D02*
X42260Y-53128D01*
G54D12*
X40515Y-44853D02*
X40373Y-44953D01*
X40515Y-45025D02*
X40215Y-45025D01*
X40215Y-44910D01*
X40230Y-44882D01*
X40244Y-44867D01*
X40273Y-44853D01*
X40315Y-44853D01*
X40344Y-44867D01*
X40358Y-44882D01*
X40373Y-44910D01*
X40373Y-45025D01*
X40515Y-44567D02*
X40515Y-44739D01*
X40515Y-44653D02*
X40215Y-44653D01*
X40258Y-44682D01*
X40287Y-44710D01*
X40301Y-44739D01*
X43959Y-62586D02*
X43709Y-62586D01*
X43709Y-62527D01*
X43721Y-62491D01*
X43745Y-62467D01*
X43769Y-62456D01*
X43816Y-62444D01*
X43852Y-62444D01*
X43900Y-62456D01*
X43923Y-62467D01*
X43947Y-62491D01*
X43959Y-62527D01*
X43959Y-62586D01*
X43959Y-62206D02*
X43959Y-62348D01*
X43959Y-62277D02*
X43709Y-62277D01*
X43745Y-62301D01*
X43769Y-62325D01*
X43781Y-62348D01*
X43709Y-61979D02*
X43709Y-62098D01*
X43828Y-62110D01*
X43816Y-62098D01*
X43804Y-62075D01*
X43804Y-62015D01*
X43816Y-61991D01*
X43828Y-61979D01*
X43852Y-61968D01*
X43912Y-61968D01*
X43935Y-61979D01*
X43947Y-61991D01*
X43959Y-62015D01*
X43959Y-62075D01*
X43947Y-62098D01*
X43935Y-62110D01*
X43959Y-61012D02*
X43709Y-61012D01*
X43709Y-60953D01*
X43721Y-60917D01*
X43745Y-60893D01*
X43769Y-60882D01*
X43816Y-60870D01*
X43852Y-60870D01*
X43900Y-60882D01*
X43923Y-60893D01*
X43947Y-60917D01*
X43959Y-60953D01*
X43959Y-61012D01*
X43959Y-60632D02*
X43959Y-60774D01*
X43959Y-60703D02*
X43709Y-60703D01*
X43745Y-60727D01*
X43769Y-60751D01*
X43781Y-60774D01*
X43793Y-60417D02*
X43959Y-60417D01*
X43697Y-60477D02*
X43876Y-60536D01*
X43876Y-60382D01*
X43959Y-59437D02*
X43709Y-59437D01*
X43709Y-59378D01*
X43721Y-59342D01*
X43745Y-59318D01*
X43769Y-59307D01*
X43816Y-59295D01*
X43852Y-59295D01*
X43900Y-59307D01*
X43923Y-59318D01*
X43947Y-59342D01*
X43959Y-59378D01*
X43959Y-59437D01*
X43959Y-59057D02*
X43959Y-59199D01*
X43959Y-59128D02*
X43709Y-59128D01*
X43745Y-59152D01*
X43769Y-59176D01*
X43781Y-59199D01*
X43709Y-58973D02*
X43709Y-58819D01*
X43804Y-58902D01*
X43804Y-58866D01*
X43816Y-58842D01*
X43828Y-58830D01*
X43852Y-58819D01*
X43912Y-58819D01*
X43935Y-58830D01*
X43947Y-58842D01*
X43959Y-58866D01*
X43959Y-58938D01*
X43947Y-58961D01*
X43935Y-58973D01*
X43959Y-57941D02*
X43709Y-57941D01*
X43709Y-57882D01*
X43721Y-57846D01*
X43745Y-57822D01*
X43769Y-57811D01*
X43816Y-57799D01*
X43852Y-57799D01*
X43900Y-57811D01*
X43923Y-57822D01*
X43947Y-57846D01*
X43959Y-57882D01*
X43959Y-57941D01*
X43959Y-57561D02*
X43959Y-57703D01*
X43959Y-57632D02*
X43709Y-57632D01*
X43745Y-57656D01*
X43769Y-57680D01*
X43781Y-57703D01*
X43733Y-57465D02*
X43721Y-57453D01*
X43709Y-57430D01*
X43709Y-57370D01*
X43721Y-57346D01*
X43733Y-57334D01*
X43757Y-57323D01*
X43781Y-57323D01*
X43816Y-57334D01*
X43959Y-57477D01*
X43959Y-57323D01*
X43959Y-56366D02*
X43709Y-56366D01*
X43709Y-56307D01*
X43721Y-56271D01*
X43745Y-56247D01*
X43769Y-56236D01*
X43816Y-56224D01*
X43852Y-56224D01*
X43900Y-56236D01*
X43923Y-56247D01*
X43947Y-56271D01*
X43959Y-56307D01*
X43959Y-56366D01*
X43959Y-55986D02*
X43959Y-56128D01*
X43959Y-56057D02*
X43709Y-56057D01*
X43745Y-56081D01*
X43769Y-56105D01*
X43781Y-56128D01*
X43959Y-55748D02*
X43959Y-55890D01*
X43959Y-55819D02*
X43709Y-55819D01*
X43745Y-55843D01*
X43769Y-55867D01*
X43781Y-55890D01*
X43959Y-54791D02*
X43709Y-54791D01*
X43709Y-54732D01*
X43721Y-54696D01*
X43745Y-54672D01*
X43769Y-54661D01*
X43816Y-54649D01*
X43852Y-54649D01*
X43900Y-54661D01*
X43923Y-54672D01*
X43947Y-54696D01*
X43959Y-54732D01*
X43959Y-54791D01*
X43959Y-54411D02*
X43959Y-54553D01*
X43959Y-54482D02*
X43709Y-54482D01*
X43745Y-54506D01*
X43769Y-54530D01*
X43781Y-54553D01*
X43709Y-54256D02*
X43709Y-54232D01*
X43721Y-54208D01*
X43733Y-54196D01*
X43757Y-54184D01*
X43804Y-54173D01*
X43864Y-54173D01*
X43912Y-54184D01*
X43935Y-54196D01*
X43947Y-54208D01*
X43959Y-54232D01*
X43959Y-54256D01*
X43947Y-54280D01*
X43935Y-54292D01*
X43912Y-54303D01*
X43864Y-54315D01*
X43804Y-54315D01*
X43757Y-54303D01*
X43733Y-54292D01*
X43721Y-54280D01*
X43709Y-54256D01*
X43959Y-53097D02*
X43709Y-53097D01*
X43709Y-53038D01*
X43721Y-53002D01*
X43745Y-52978D01*
X43769Y-52967D01*
X43816Y-52955D01*
X43852Y-52955D01*
X43900Y-52967D01*
X43923Y-52978D01*
X43947Y-53002D01*
X43959Y-53038D01*
X43959Y-53097D01*
X43959Y-52836D02*
X43959Y-52788D01*
X43947Y-52764D01*
X43935Y-52752D01*
X43900Y-52728D01*
X43852Y-52717D01*
X43757Y-52717D01*
X43733Y-52728D01*
X43721Y-52740D01*
X43709Y-52764D01*
X43709Y-52812D01*
X43721Y-52836D01*
X43733Y-52847D01*
X43757Y-52859D01*
X43816Y-52859D01*
X43840Y-52847D01*
X43852Y-52836D01*
X43864Y-52812D01*
X43864Y-52764D01*
X43852Y-52740D01*
X43840Y-52728D01*
X43816Y-52717D01*
X43959Y-51523D02*
X43709Y-51523D01*
X43709Y-51464D01*
X43721Y-51428D01*
X43745Y-51404D01*
X43769Y-51393D01*
X43816Y-51381D01*
X43852Y-51381D01*
X43900Y-51393D01*
X43923Y-51404D01*
X43947Y-51428D01*
X43959Y-51464D01*
X43959Y-51523D01*
X43816Y-51238D02*
X43804Y-51262D01*
X43793Y-51273D01*
X43769Y-51285D01*
X43757Y-51285D01*
X43733Y-51273D01*
X43721Y-51262D01*
X43709Y-51238D01*
X43709Y-51190D01*
X43721Y-51166D01*
X43733Y-51154D01*
X43757Y-51143D01*
X43769Y-51143D01*
X43793Y-51154D01*
X43804Y-51166D01*
X43816Y-51190D01*
X43816Y-51238D01*
X43828Y-51262D01*
X43840Y-51273D01*
X43864Y-51285D01*
X43912Y-51285D01*
X43935Y-51273D01*
X43947Y-51262D01*
X43959Y-51238D01*
X43959Y-51190D01*
X43947Y-51166D01*
X43935Y-51154D01*
X43912Y-51143D01*
X43864Y-51143D01*
X43840Y-51154D01*
X43828Y-51166D01*
X43816Y-51190D01*
X43959Y-49948D02*
X43709Y-49948D01*
X43709Y-49889D01*
X43721Y-49853D01*
X43745Y-49829D01*
X43769Y-49818D01*
X43816Y-49806D01*
X43852Y-49806D01*
X43900Y-49818D01*
X43923Y-49829D01*
X43947Y-49853D01*
X43959Y-49889D01*
X43959Y-49948D01*
X43709Y-49722D02*
X43709Y-49556D01*
X43959Y-49663D01*
X43959Y-48373D02*
X43709Y-48373D01*
X43709Y-48314D01*
X43721Y-48278D01*
X43745Y-48254D01*
X43769Y-48243D01*
X43816Y-48231D01*
X43852Y-48231D01*
X43900Y-48243D01*
X43923Y-48254D01*
X43947Y-48278D01*
X43959Y-48314D01*
X43959Y-48373D01*
X43709Y-48016D02*
X43709Y-48064D01*
X43721Y-48088D01*
X43733Y-48100D01*
X43769Y-48123D01*
X43816Y-48135D01*
X43912Y-48135D01*
X43935Y-48123D01*
X43947Y-48112D01*
X43959Y-48088D01*
X43959Y-48040D01*
X43947Y-48016D01*
X43935Y-48004D01*
X43912Y-47993D01*
X43852Y-47993D01*
X43828Y-48004D01*
X43816Y-48016D01*
X43804Y-48040D01*
X43804Y-48088D01*
X43816Y-48112D01*
X43828Y-48123D01*
X43852Y-48135D01*
X43959Y-46798D02*
X43709Y-46798D01*
X43709Y-46739D01*
X43721Y-46703D01*
X43745Y-46679D01*
X43769Y-46668D01*
X43816Y-46656D01*
X43852Y-46656D01*
X43900Y-46668D01*
X43923Y-46679D01*
X43947Y-46703D01*
X43959Y-46739D01*
X43959Y-46798D01*
X43709Y-46429D02*
X43709Y-46548D01*
X43828Y-46560D01*
X43816Y-46548D01*
X43804Y-46525D01*
X43804Y-46465D01*
X43816Y-46441D01*
X43828Y-46429D01*
X43852Y-46418D01*
X43912Y-46418D01*
X43935Y-46429D01*
X43947Y-46441D01*
X43959Y-46465D01*
X43959Y-46525D01*
X43947Y-46548D01*
X43935Y-46560D01*
X43959Y-45223D02*
X43709Y-45223D01*
X43709Y-45164D01*
X43721Y-45128D01*
X43745Y-45104D01*
X43769Y-45093D01*
X43816Y-45081D01*
X43852Y-45081D01*
X43900Y-45093D01*
X43923Y-45104D01*
X43947Y-45128D01*
X43959Y-45164D01*
X43959Y-45223D01*
X43793Y-44866D02*
X43959Y-44866D01*
X43697Y-44926D02*
X43876Y-44985D01*
X43876Y-44831D01*
X43959Y-43649D02*
X43709Y-43649D01*
X43709Y-43590D01*
X43721Y-43554D01*
X43745Y-43530D01*
X43769Y-43519D01*
X43816Y-43507D01*
X43852Y-43507D01*
X43900Y-43519D01*
X43923Y-43530D01*
X43947Y-43554D01*
X43959Y-43590D01*
X43959Y-43649D01*
X43709Y-43423D02*
X43709Y-43269D01*
X43804Y-43352D01*
X43804Y-43316D01*
X43816Y-43292D01*
X43828Y-43280D01*
X43852Y-43269D01*
X43912Y-43269D01*
X43935Y-43280D01*
X43947Y-43292D01*
X43959Y-43316D01*
X43959Y-43388D01*
X43947Y-43411D01*
X43935Y-43423D01*
X43959Y-42074D02*
X43709Y-42074D01*
X43709Y-42015D01*
X43721Y-41979D01*
X43745Y-41955D01*
X43769Y-41944D01*
X43816Y-41932D01*
X43852Y-41932D01*
X43900Y-41944D01*
X43923Y-41955D01*
X43947Y-41979D01*
X43959Y-42015D01*
X43959Y-42074D01*
X43733Y-41836D02*
X43721Y-41824D01*
X43709Y-41801D01*
X43709Y-41741D01*
X43721Y-41717D01*
X43733Y-41705D01*
X43757Y-41694D01*
X43781Y-41694D01*
X43816Y-41705D01*
X43959Y-41848D01*
X43959Y-41694D01*
X43959Y-40578D02*
X43709Y-40578D01*
X43709Y-40519D01*
X43721Y-40483D01*
X43745Y-40459D01*
X43769Y-40448D01*
X43816Y-40436D01*
X43852Y-40436D01*
X43900Y-40448D01*
X43923Y-40459D01*
X43947Y-40483D01*
X43959Y-40519D01*
X43959Y-40578D01*
X43959Y-40198D02*
X43959Y-40340D01*
X43959Y-40269D02*
X43709Y-40269D01*
X43745Y-40293D01*
X43769Y-40317D01*
X43781Y-40340D01*
G54D11*
X40818Y-49298D02*
X40818Y-48698D01*
X41046Y-48698D01*
X41104Y-48726D01*
X41132Y-48755D01*
X41161Y-48812D01*
X41161Y-48898D01*
X41132Y-48955D01*
X41104Y-48984D01*
X41046Y-49012D01*
X40818Y-49012D01*
X41732Y-49298D02*
X41389Y-49298D01*
X41561Y-49298D02*
X41561Y-48698D01*
X41504Y-48784D01*
X41446Y-48841D01*
X41389Y-48869D01*
M02*
