G04 (created by PCBNEW-RS274X (2011-07-19)-testing) date Fri 30 Dec 2011 11:25:08 AM PST*
G01*
G70*
G90*
%MOIN*%
G04 Gerber Fmt 3.4, Leading zero omitted, Abs format*
%FSLAX34Y34*%
G04 APERTURE LIST*
%ADD10C,0.006000*%
%ADD11R,0.080000X0.060000*%
%ADD12R,0.055000X0.035000*%
%ADD13R,0.059100X0.070900*%
%ADD14R,0.047200X0.070900*%
%ADD15C,0.133900*%
%ADD16C,0.020000*%
G04 APERTURE END LIST*
G54D10*
G54D11*
X41260Y-45453D03*
X41260Y-44153D03*
G54D12*
X44370Y-62027D03*
X44370Y-62777D03*
X44370Y-60452D03*
X44370Y-61202D03*
X44370Y-58877D03*
X44370Y-59627D03*
X44370Y-57302D03*
X44370Y-58052D03*
X44370Y-55727D03*
X44370Y-56477D03*
X44370Y-54153D03*
X44370Y-54903D03*
X44370Y-52578D03*
X44370Y-53328D03*
X44370Y-51003D03*
X44370Y-51753D03*
X44370Y-49428D03*
X44370Y-50178D03*
X44370Y-47853D03*
X44370Y-48603D03*
X44370Y-46279D03*
X44370Y-47029D03*
X44370Y-44704D03*
X44370Y-45454D03*
X44370Y-43129D03*
X44370Y-43879D03*
X44370Y-41554D03*
X44370Y-42304D03*
X44370Y-39979D03*
X44370Y-40729D03*
G54D13*
X40768Y-52776D03*
X41752Y-52776D03*
G54D14*
X40768Y-49980D03*
X41752Y-49980D03*
G54D15*
X40870Y-61886D03*
X40870Y-40870D03*
G54D16*
X40768Y-52776D02*
X40768Y-49980D01*
X40768Y-46448D02*
X41260Y-45956D01*
X40768Y-49980D02*
X40768Y-46448D01*
X41260Y-45453D02*
X41260Y-45956D01*
X44370Y-48603D02*
X44370Y-48981D01*
X44898Y-48075D02*
X44370Y-48603D01*
X44898Y-44407D02*
X44898Y-48075D01*
X44370Y-43879D02*
X44898Y-44407D01*
X41752Y-49980D02*
X41752Y-50537D01*
X43992Y-48981D02*
X44370Y-48981D01*
X42436Y-50537D02*
X43992Y-48981D01*
X41752Y-50537D02*
X42436Y-50537D01*
X41752Y-50537D02*
X41752Y-52776D01*
X44370Y-53328D02*
X43892Y-53328D01*
X43882Y-53338D02*
X43892Y-53328D01*
X43320Y-52776D02*
X43882Y-53338D01*
X41752Y-52776D02*
X43320Y-52776D01*
X43882Y-57564D02*
X44370Y-58052D01*
X43882Y-53338D02*
X43882Y-57564D01*
X43842Y-62249D02*
X44370Y-62777D01*
X43842Y-58580D02*
X43842Y-62249D01*
X44370Y-58052D02*
X43842Y-58580D01*
X44370Y-56477D02*
X44370Y-57302D01*
X44370Y-59627D02*
X44370Y-60452D01*
X44370Y-61202D02*
X44370Y-62027D01*
X44370Y-40729D02*
X44370Y-41554D01*
X44370Y-42304D02*
X44370Y-43129D01*
X44370Y-45454D02*
X44370Y-46279D01*
X44370Y-47029D02*
X44370Y-47853D01*
X44370Y-50178D02*
X44370Y-51003D01*
X44370Y-51753D02*
X44370Y-52578D01*
X44370Y-54903D02*
X44370Y-55727D01*
X44370Y-44704D02*
X44370Y-44326D01*
X41260Y-44153D02*
X41260Y-43650D01*
X43846Y-43650D02*
X41260Y-43650D01*
X43846Y-40503D02*
X43846Y-43650D01*
X44370Y-39979D02*
X43846Y-40503D01*
X43992Y-44326D02*
X44370Y-44326D01*
X43846Y-44180D02*
X43992Y-44326D01*
X43846Y-43650D02*
X43846Y-44180D01*
X44370Y-54153D02*
X44370Y-53775D01*
X44370Y-58877D02*
X44370Y-58499D01*
X44849Y-53775D02*
X44370Y-53775D01*
X44748Y-58499D02*
X44370Y-58499D01*
X44849Y-58398D02*
X44748Y-58499D01*
X44849Y-53775D02*
X44849Y-58398D01*
X44849Y-49907D02*
X44370Y-49428D01*
X44849Y-53775D02*
X44849Y-49907D01*
X45352Y-40961D02*
X44370Y-39979D01*
X45352Y-48446D02*
X45352Y-40961D01*
X44370Y-49428D02*
X45352Y-48446D01*
M02*
