M48
;DRILL file {PCBnew (2011-07-19)-testing} date Thu 29 Dec 2011 06:50:16 PM PST
;FORMAT={2:4/ absolute / inch / suppress trailing zeros}
FMAT,2
INCH,LZ
T1C0.030
T2C0.039
T3C0.040
T4C0.090
T5C0.096
%
G90
G05
M72
T1
X046031Y-045427
X046031Y-046427
X046031Y-047427
X046031Y-048427
X046031Y-049427
X046031Y-050427
X046031Y-051427
X046031Y-052427
X046031Y-053427
X046031Y-054427
X046031Y-055427
X046031Y-056427
X046031Y-057427
T2
X0528Y-057272
X0528Y-05924
T3
X055031Y-050927
X055031Y-051927
T4
X048251Y-040127
X048251Y-062727
T5
X040621Y-040788
X040621Y-062066
X055442Y-040788
X055442Y-062066
T0
M30
